<svg width="22" height="21" viewBox="0 0 22 21" fill="none" xmlns="http://www.w3.org/2000/svg">
<path d="M21.6971 17.9433L17.4135 13.9023C17.2202 13.7199 16.9581 13.6186 16.6831 13.6186H15.9828C17.1686 12.1878 17.8733 10.3882 17.8733 8.43055C17.8733 3.77348 13.8733 0 8.93663 0C4 0 0 3.77348 0 8.43055C0 13.0876 4 16.8611 8.93663 16.8611C11.0118 16.8611 12.9194 16.1964 14.4361 15.0777V15.7384C14.4361 15.9978 14.5435 16.245 14.7368 16.4274L19.0204 20.4684C19.4243 20.8494 20.0773 20.8494 20.4769 20.4684L21.6928 19.3214C22.0967 18.9404 22.0967 18.3243 21.6971 17.9433ZM8.93663 13.6186C5.89903 13.6186 3.43716 11.3002 3.43716 8.43055C3.43716 5.56497 5.89474 3.24252 8.93663 3.24252C11.9742 3.24252 14.4361 5.56092 14.4361 8.43055C14.4361 11.2961 11.9785 13.6186 8.93663 13.6186Z" fill="#231F20"/>
</svg>
