<svg width="40" height="40" viewBox="0 0 40 40" fill="none" xmlns="http://www.w3.org/2000/svg">
<path d="M36.5 30.125C38.375 27.125 39.375 23.625 39.375 20C39.375 9.375 30.625 0.625 20 0.625C9.375 0.625 0.625 9.375 0.625 20C0.625 30.625 9.375 39.375 20 39.375C23.625 39.375 27.125 38.375 30.125 36.5L38.125 39.25H38.5C38.75 39.25 39 39.125 39.125 39C39.375 38.75 39.5 38.375 39.375 38L36.5 30.125ZM28 15.25L16.125 27.125C16 27.25 15.75 27.375 15.5 27.375C15.25 27.375 15 27.25 14.875 27.125L10.875 23.125C10.5 22.75 10.5 22.125 10.875 21.75C11.25 21.375 11.875 21.375 12.25 21.75L15.5 25L26.75 13.75C27.125 13.375 27.75 13.375 28.125 13.75C28.375 14.25 28.375 14.875 28 15.25Z" fill="#80AFF9"/>
</svg>
