<svg width="16" height="16" viewBox="0 0 16 16" fill="none" xmlns="http://www.w3.org/2000/svg">
<path d="M10.2066 5.79347C12.0737 7.6625 12.0481 10.659 10.2179 12.4994C10.2145 12.5031 10.2104 12.5072 10.2066 12.511L8.10664 14.611C6.25445 16.4631 3.24105 16.4629 1.38914 14.611C-0.463047 12.7591 -0.463047 9.74534 1.38914 7.89347L2.5487 6.73391C2.8562 6.42641 3.38577 6.63078 3.40164 7.06535C3.42189 7.61916 3.5212 8.17556 3.70445 8.71287C3.76652 8.89481 3.72217 9.09606 3.58624 9.232L3.17727 9.64097C2.30145 10.5168 2.27398 11.9428 3.14117 12.8272C4.01692 13.7203 5.45636 13.7256 6.33883 12.8431L8.43883 10.7435C9.3198 9.8625 9.31611 8.43856 8.43883 7.56128C8.32317 7.44585 8.20667 7.35616 8.11567 7.2935C8.0513 7.24929 7.99814 7.19065 7.96045 7.12226C7.92276 7.05386 7.90157 6.9776 7.89858 6.89956C7.88621 6.56935 8.0032 6.22907 8.26414 5.96813L8.92208 5.31016C9.09461 5.13763 9.36527 5.11644 9.56533 5.25607C9.79445 5.41605 10.009 5.59588 10.2066 5.79347ZM14.6109 1.38904C12.759 -0.46289 9.74555 -0.46314 7.89336 1.38904L5.79336 3.48904C5.78961 3.49279 5.78555 3.49685 5.78211 3.5006C3.95192 5.34097 3.92627 8.3375 5.79336 10.2065C5.99095 10.4041 6.20554 10.5839 6.43464 10.7439C6.63471 10.8835 6.90539 10.8623 7.07789 10.6898L7.73583 10.0318C7.99677 9.7709 8.11377 9.43062 8.10139 9.1004C8.0984 9.02237 8.07722 8.94611 8.03952 8.87771C8.00183 8.80932 7.94868 8.75068 7.8843 8.70647C7.7933 8.64381 7.6768 8.55412 7.56114 8.43869C6.68386 7.56141 6.68017 6.13747 7.56114 5.25651L9.66114 3.15682C10.5436 2.27435 11.983 2.27967 12.8588 3.17276C13.726 4.05713 13.6985 5.48319 12.8227 6.359L12.4137 6.76797C12.2778 6.90391 12.2335 7.10516 12.2955 7.2871C12.4788 7.82441 12.5781 8.38081 12.5983 8.93462C12.6142 9.36918 13.1438 9.57356 13.4513 9.26606L14.6108 8.1065C16.4631 6.25466 16.4631 3.24092 14.6109 1.38904Z" fill="#BDBDBD"/>
</svg>
