<svg width="16" height="16" viewBox="0 0 16 16" fill="none" xmlns="http://www.w3.org/2000/svg">
<path d="M8 0C3.58065 0 0 3.58065 0 8C0 12.4194 3.58065 16 8 16C12.4194 16 16 12.4194 16 8C16 3.58065 12.4194 0 8 0ZM9.84194 11.2935L6.99677 9.22581C6.89677 9.15161 6.83871 9.03548 6.83871 8.9129V3.48387C6.83871 3.27097 7.0129 3.09677 7.22581 3.09677H8.77419C8.9871 3.09677 9.16129 3.27097 9.16129 3.48387V7.92581L11.2097 9.41613C11.3839 9.54193 11.4194 9.78387 11.2935 9.95807L10.3839 11.2097C10.2581 11.3806 10.0161 11.4194 9.84194 11.2935Z" fill="#C7C7CC"/>
</svg>
