<svg width="28" height="24" viewBox="0 0 28 24" fill="none" xmlns="http://www.w3.org/2000/svg">
<path d="M24.8571 0H2.57143C1.15179 0 0 1.15179 0 2.57143V21.4286C0 22.8482 1.15179 24 2.57143 24H24.8571C26.2768 24 27.4286 22.8482 27.4286 21.4286V2.57143C27.4286 1.15179 26.2768 0 24.8571 0ZM20.3786 15.5625C20.6357 15.8196 20.6357 16.2375 20.3786 16.4946L18.2089 18.6643C17.9518 18.9214 17.5339 18.9214 17.2768 18.6643L13.7143 15.0696L10.1518 18.6643C9.89464 18.9214 9.47679 18.9214 9.21964 18.6643L7.05 16.4946C6.79286 16.2375 6.79286 15.8196 7.05 15.5625L10.6446 12L7.05 8.4375C6.79286 8.18036 6.79286 7.7625 7.05 7.50536L9.21964 5.33571C9.47679 5.07857 9.89464 5.07857 10.1518 5.33571L13.7143 8.93036L17.2768 5.33571C17.5339 5.07857 17.9518 5.07857 18.2089 5.33571L20.3786 7.50536C20.6357 7.7625 20.6357 8.18036 20.3786 8.4375L16.7839 12L20.3786 15.5625Z" fill="#C7C7CC"/>
</svg>
