<svg width="19" height="26" viewBox="0 0 19 26" fill="none" xmlns="http://www.w3.org/2000/svg">
<path d="M11.0833 6.90625V0H1.1875C0.529427 0 0 0.543359 0 1.21875V24.7812C0 25.4566 0.529427 26 1.1875 26H17.8125C18.4706 26 19 25.4566 19 24.7812V8.125H12.2708C11.6177 8.125 11.0833 7.57656 11.0833 6.90625ZM14.866 17.6394L10.0952 22.4991C9.7662 22.8348 9.23479 22.8348 8.90576 22.4991L4.13497 17.6394C3.63276 17.128 3.98505 16.25 4.69161 16.25H7.91667V12.1875C7.91667 11.7386 8.27094 11.375 8.70833 11.375H10.2917C10.7291 11.375 11.0833 11.7386 11.0833 12.1875V16.25H14.3084C15.0149 16.25 15.3672 17.128 14.866 17.6394ZM18.6536 5.33203L13.8096 0.355469C13.587 0.126953 13.2852 0 12.9685 0H12.6667V6.5H19V6.19023C19 5.87031 18.8763 5.56055 18.6536 5.33203Z" fill="#FFFFFF"/>
</svg>
