<svg width="26" height="23" viewBox="0 0 26 23" fill="none" xmlns="http://www.w3.org/2000/svg">
<path d="M12.4632 17.0404L13.8795 19.0637C13.4276 19.1063 12.9739 19.1277 12.52 19.1278C7.31161 19.1278 2.74012 16.3478 0.288937 12.1883C0.0997671 11.8672 0 11.5015 0 11.1289C0 10.7563 0.0997671 10.3905 0.288937 10.0695C1.33327 8.29727 2.76307 6.77535 4.46331 5.61195L6.94458 9.15663C6.72674 9.77341 6.6078 10.4371 6.6078 11.1289C6.6078 14.3778 9.222 17.0099 12.4632 17.0404ZM24.7511 12.1883C23.3745 14.5243 21.3278 16.4251 18.8747 17.6429L18.8752 17.6436L20.678 20.2171C21.0084 20.6892 20.8936 21.3396 20.4215 21.67L19.8516 22.069C19.3795 22.3994 18.7292 22.2847 18.3988 21.8126L4.36202 2.04058C4.03163 1.56847 4.1464 0.918125 4.61851 0.587736L5.18843 0.188662C5.66054 -0.141727 6.31088 -0.0269606 6.64127 0.445148L8.86001 3.60197C10.0282 3.29414 11.2552 3.12999 12.52 3.12999C17.7284 3.12999 22.2999 5.91 24.7511 10.0695C24.9402 10.3905 25.04 10.7563 25.04 11.1289C25.04 11.5015 24.9402 11.8672 24.7511 12.1883ZM18.4322 11.1289C18.4322 7.8609 15.7875 5.21666 12.52 5.21666C11.7402 5.21666 10.9961 5.36764 10.3147 5.64147L11.1537 6.81774C12.2783 6.46253 13.5466 6.54982 14.6489 7.13987H14.6475C13.6194 7.13987 12.7861 7.97323 12.7861 9.00135C12.7861 10.0284 13.6184 10.8628 14.6475 10.8628C15.6757 10.8628 16.509 10.0295 16.509 9.00135V9.00004C17.3116 10.4994 17.2181 12.3871 16.1504 13.8233V13.8237L16.99 15.0001C17.8887 13.9633 18.4322 12.6101 18.4322 11.1289ZM11.3903 15.5077L8.01995 10.6929C7.80198 12.9702 9.29429 14.9685 11.3903 15.5077Z" fill="#767676"/>
</svg>
