<svg width="26" height="16" viewBox="0 0 26 16" fill="none" xmlns="http://www.w3.org/2000/svg">
<path d="M24.7545 6.94048C22.303 2.78039 17.7309 0 12.5218 0C7.31046 0 2.73932 2.78235 0.288977 6.94048C0.0997809 7.26152 0 7.62737 0 8.00002C0 8.37267 0.0997809 8.73852 0.288977 9.05957C2.7405 13.2196 7.31263 16 12.5218 16C17.7331 16 22.3042 13.2177 24.7545 9.05952C24.9437 8.73848 25.0435 8.37264 25.0435 8C25.0435 7.62736 24.9437 7.26152 24.7545 6.94048ZM12.5218 13.913C9.25385 13.913 6.60872 11.2684 6.60872 8C6.60872 4.73209 9.25333 2.08696 12.5218 2.08696C15.7897 2.08696 18.4348 4.73156 18.4348 8C18.4348 11.2679 15.7902 13.913 12.5218 13.913ZM17.0435 8C17.0435 10.4973 15.0191 12.5217 12.5218 12.5217C10.0245 12.5217 8.00002 10.4973 8.00002 8C8.00002 7.23009 8.19267 6.50526 8.53202 5.87074L8.53198 5.87213C8.53198 6.90044 9.36559 7.734 10.3939 7.734C11.4222 7.734 12.2558 6.90039 12.2558 5.87213C12.2558 4.84383 11.4222 4.01022 10.3939 4.01022L10.3925 4.01026C11.027 3.67091 11.7518 3.47826 12.5218 3.47826C15.0191 3.47826 17.0435 5.5027 17.0435 8Z" fill="#C7C7CC"/>
</svg>
