<svg width="23" height="20" viewBox="0 0 23 20" fill="none" xmlns="http://www.w3.org/2000/svg">
<path d="M22.1429 15.7143H7.14286V15C7.14286 14.6071 6.82143 14.2857 6.42857 14.2857H5C4.60714 14.2857 4.28571 14.6071 4.28571 15V15.7143H0.714286C0.321429 15.7143 0 16.0357 0 16.4286V17.8571C0 18.25 0.321429 18.5714 0.714286 18.5714H4.28571V19.2857C4.28571 19.6786 4.60714 20 5 20H6.42857C6.82143 20 7.14286 19.6786 7.14286 19.2857V18.5714H22.1429C22.5357 18.5714 22.8571 18.25 22.8571 17.8571V16.4286C22.8571 16.0357 22.5357 15.7143 22.1429 15.7143ZM22.1429 8.57143H18.5714V7.85714C18.5714 7.46429 18.25 7.14286 17.8571 7.14286H16.4286C16.0357 7.14286 15.7143 7.46429 15.7143 7.85714V8.57143H0.714286C0.321429 8.57143 0 8.89286 0 9.28571V10.7143C0 11.1071 0.321429 11.4286 0.714286 11.4286H15.7143V12.1429C15.7143 12.5357 16.0357 12.8571 16.4286 12.8571H17.8571C18.25 12.8571 18.5714 12.5357 18.5714 12.1429V11.4286H22.1429C22.5357 11.4286 22.8571 11.1071 22.8571 10.7143V9.28571C22.8571 8.89286 22.5357 8.57143 22.1429 8.57143ZM22.1429 1.42857H12.8571V0.714286C12.8571 0.321429 12.5357 0 12.1429 0H10.7143C10.3214 0 10 0.321429 10 0.714286V1.42857H0.714286C0.321429 1.42857 0 1.75 0 2.14286V3.57143C0 3.96429 0.321429 4.28571 0.714286 4.28571H10V5C10 5.39286 10.3214 5.71429 10.7143 5.71429H12.1429C12.5357 5.71429 12.8571 5.39286 12.8571 5V4.28571H22.1429C22.5357 4.28571 22.8571 3.96429 22.8571 3.57143V2.14286C22.8571 1.75 22.5357 1.42857 22.1429 1.42857Z" fill="#767676"/>
</svg>
