<svg width="24" height="19" viewBox="0 0 24 19" fill="none" xmlns="http://www.w3.org/2000/svg">
<path d="M23.6678 9.95389L15.6674 17.9543C14.9531 18.6686 13.715 18.1686 13.715 17.1447V12.5731H7.23845C6.60509 12.5731 6.09554 12.0635 6.09554 11.4302V6.8585C6.09554 6.22513 6.60509 5.71558 7.23845 5.71558H13.715V1.14393C13.715 0.124829 14.9484 -0.379958 15.6674 0.334363L23.6678 8.33476C24.1107 8.7824 24.1107 9.50625 23.6678 9.95389ZM9.14331 17.7162V15.8113C9.14331 15.497 8.88616 15.2399 8.57185 15.2399H4.57166C3.72876 15.2399 3.04777 14.5589 3.04777 13.716V4.57267C3.04777 3.72977 3.72876 3.04878 4.57166 3.04878H8.57185C8.88616 3.04878 9.14331 2.79163 9.14331 2.47733V0.57247C9.14331 0.258168 8.88616 0.00101284 8.57185 0.00101284H4.57166C2.04772 0.00101284 0 2.04873 0 4.57267V13.716C0 16.2399 2.04772 18.2876 4.57166 18.2876H8.57185C8.88616 18.2876 9.14331 18.0305 9.14331 17.7162Z" fill="#767676"/>
</svg>
