<svg width="49" height="44" viewBox="0 0 49 44" fill="none" xmlns="http://www.w3.org/2000/svg">
<path d="M42.7031 34.939L42.5747 34.861L42.5411 34.8228L42.4967 34.7846L42.3851 34.7159L42.246 34.8381L42.2124 34.997L42.2506 35.4494L42.3744 35.373L42.4646 35.13L42.5411 35.0796L42.6022 35.1239L42.645 35.2217L42.7138 35.321L42.8346 35.3699L42.7887 35.2217L42.7612 35.0689L42.7031 34.939ZM44.0544 33.2625L44.1935 33.0103L44.2639 32.8376L44.218 32.8346L44.0697 33.0485L43.9749 33.2212L43.9245 33.3221L43.8481 33.4321L43.7548 33.5406L43.8053 33.5269L43.9749 33.3649L44.0544 33.2625ZM38.189 40.2053L38.1309 40.2435L38.0835 40.32L38.1737 40.3291L38.3113 40.2405L38.325 40.1824L38.2348 40.1931L38.189 40.2053ZM43.6707 34.7036L44.1003 35.0811L44.2348 34.7174L44.2272 34.6455L44.166 34.6562L44.0728 34.6975L43.9749 34.7174L43.6876 34.6455L43.6707 34.7036ZM46.0188 37.6516L46.2985 37.3307L46.3337 37.2726L46.2909 37.2864L46.2695 37.3017L45.8858 37.7403L45.9515 37.7082L46.0188 37.6516ZM46.7036 41.1804L46.6103 41.0352L46.4988 40.9618L46.3642 40.9435L46.1976 40.9649L46.2343 41.0749L46.2649 41.1162L46.138 41.1085L45.9928 41.0673L45.8705 40.9847L45.8216 40.8625L45.4348 40.7509V40.6852L45.5403 40.6546L45.6305 40.6134L45.7008 40.5538L45.7589 40.4606L45.6595 40.4224L45.6244 40.3322L45.5907 40.2176L45.5036 40.1029L45.47 40.1274L45.3783 40.1794L45.3507 40.054L45.2972 39.9761L45.2346 39.9104L45.1841 39.8111L45.1489 39.8386L45.0526 39.8829L45.0618 39.7591L45.0588 39.6552L45.0404 39.5925L44.9961 39.5956L44.9884 39.5589L44.9869 39.5314L44.9732 39.5146L44.9288 39.5207L44.8432 39.7102L44.6949 39.8477L44.5329 39.9134L44.4152 39.8829L44.3785 39.8034L44.3479 39.6032L44.2929 39.5207L44.189 39.4702L44.1095 39.4764L44.033 39.5039L43.8389 39.5344L43.6998 39.5833L43.6249 39.5956L43.5209 39.5711L43.3864 39.4718L43.3069 39.4504L43.2656 39.4168L43.2763 39.3434L43.3344 39.267L43.4323 39.2334H43.5332L43.6111 39.2227L43.6707 39.1784L43.6723 39.1233C43.5958 39.1096 43.5194 39.0958 43.443 39.0821L43.3467 39.1019L43.2702 39.1539H43.2121L43.154 39.1096L43.0776 39.1019L42.9874 39.1203L42.9599 39.0867L42.7719 38.9858H42.5655L42.0121 39.1004L41.8883 39.0912L41.7874 39.0454L41.7431 38.9354L41.7905 38.9155L41.8914 38.9002L41.9816 38.8284L42.003 38.6542L41.8547 38.7275L41.8119 38.6511L41.8455 38.4998L41.9403 38.3546V38.2843L41.7737 38.2706L41.5169 38.1254L41.3655 38.0673L41.3869 38.0306L41.39 38.0184L41.4343 37.9863L41.2998 37.9298L41.0674 37.9542L40.8504 37.8152L40.5966 37.7296L40.5064 37.6639L40.4544 37.5569L40.3994 37.3215L40.349 37.1962L40.086 36.8844L40.0341 36.7561L40.0616 36.753L40.1548 36.7561L40.0921 36.6537L39.9989 36.6017L39.7742 36.5375L40.0967 36.4749L40.8672 36.6827L41.0476 36.6094L40.8091 36.3679L40.7923 36.319L40.7984 36.3006L40.7923 36.2487L40.6027 36.1692L40.6898 36.1157L40.7281 36.102L40.6042 35.995L40.3612 35.8498L40.2786 35.7321L40.5553 35.8192L41.0078 36.1066L41.2677 36.1662L41.523 36.183L41.8134 36.2456L41.9174 36.319L42.0274 36.429L42.1589 36.5192L42.3209 36.536V36.4626L42.0091 36.183L41.8715 36.1004L41.9113 36.0974L41.9495 36.0897L41.9953 36.0867L42.058 36.1004L41.9479 35.969L41.7584 35.9599L41.5444 35.9843L41.3609 35.9537L41.2539 35.8391L41.1912 35.6618L41.2127 35.4647L41.3609 35.2951L41.4465 35.2752L41.6498 35.3058L41.74 35.2951L41.8532 35.24L41.9036 35.1896L42.0014 34.9986L42.1329 34.8595L42.2751 34.7418L42.3591 34.6043L42.3179 34.4194L42.4402 34.4224L42.5548 34.4637L42.6511 34.5263L42.7276 34.6043L42.8284 34.7923L42.8942 34.858L43.0119 34.861L42.9905 34.9329L42.9706 35.0796L42.9538 35.1514L43.0425 35.078L43.1296 34.8733L43.206 34.7968H43.2733L43.4904 34.8549L43.5851 34.8626L43.4659 34.7861L43.391 34.6715L43.336 34.5432L43.2626 34.4224L43.3146 34.3521L43.3803 34.2772L43.4705 34.2222L43.5851 34.2085L43.5546 34.1642L43.5393 34.129L43.5148 34.0969L43.4598 34.0648L43.5194 34.0404L43.7105 33.9288L43.4491 33.8188L43.3895 33.7744L43.3283 33.8463L43.2733 33.8845L43.1342 33.9288V33.8493L43.3161 33.7225L43.3864 33.6277L43.3589 33.5162L43.2794 33.4963L43.1647 33.5376L43.0608 33.617L43.0088 33.6965H42.9507L42.9538 33.6476L42.937 33.64L42.9507 33.6323L42.8881 33.588L42.7535 33.4077V33.3419L43.0088 33.1968L43.07 33.3725L43.2473 33.3374L43.3543 33.1754L43.203 32.9721L43.0715 32.9354L42.8086 32.9828L42.6909 32.9706L42.5716 32.9003L42.5961 32.8667L42.6863 32.8285L42.7551 32.7582V32.668L42.7184 32.5855L42.7031 32.4983L42.7551 32.3883L42.8758 32.318L43.1357 32.3394L43.2626 32.3088L43.3742 32.2126L43.3925 32.13L43.3314 32.0643L43.203 32.0231L43.1342 32.0445L42.937 32.1835L42.8819 32.2416H42.8239L42.8025 32.2003L42.7963 32.1927H42.7856L42.752 32.1682V32.0888H42.8223V32.0231L42.752 31.9818L42.5441 31.8916L42.4432 31.8733L42.3943 31.8137L42.3423 31.7969L42.2766 31.8351L42.2491 31.8977L42.2583 32.0322L42.2414 32.0903L42.1925 32.1789L42.1589 32.2554L42.1207 32.3226L42.0519 32.3883L41.9541 32.4433L41.7614 32.4922L41.6712 32.5289L41.5383 32.6405L41.4863 32.7719V33.1555L41.445 33.3847L41.3395 33.617L41.1943 33.8111L41.0353 33.9288L40.8335 33.9777L40.6195 33.9746L40.4147 33.8982L40.242 33.7362L40.0234 33.478L40.0555 33.3572L40.19 33.18L40.2114 33.1142L40.138 33.0684L39.8139 33.2136L39.6718 33.2609L39.4134 33.2518L39.2575 33.2105L39.1597 33.1035L39.0664 32.8957L39.0007 32.6955L38.9869 32.5259L39.0358 32.3669L39.1597 32.2065L39.3584 32.101L39.6076 32.1086L39.846 32.2095L40.0218 32.3853L40.1227 32.292L40.1166 32.1958L40.083 32.0934L40.1105 31.9803L40.19 31.9253L40.4636 31.8305L40.5018 31.5676L40.5981 31.4332L40.7235 31.3292L40.8504 31.1458L40.751 31.0832L40.589 30.8967L40.4636 30.8478L40.2083 30.9212L40.1747 30.993L40.2267 31.045L40.3016 31.0664H40.3337L40.3428 31.0114L40.3887 30.9839L40.4392 31.0007L40.4636 31.0664L40.4422 31.1504L40.3948 31.2024L40.2664 31.2895L40.2175 31.3063L40.0784 31.2834L40.0203 31.2895L40.0142 31.3277L39.8842 31.5829L39.8567 31.5203L39.8185 31.4821L39.7834 31.4576L39.7589 31.4301L39.8185 31.3292L39.9225 31.0526L40.0188 30.9212L39.95 30.776H39.8842L39.8521 30.9181L39.7971 31.0541L39.7146 31.1886L39.5113 31.4546L39.4868 31.5447L39.4623 31.589L39.3783 31.5829L39.2483 31.5355L39.1031 31.4591L38.9808 31.3613L38.9319 31.2513L38.9013 31.0924L38.8264 31.0312L38.6124 30.99L38.4335 31.3323L38.1767 31.6211L37.5347 32.0811L37.3482 32.1667L37.1571 32.2126L36.5319 32.2676L36.1543 32.3883L35.9388 32.3807L35.3579 32.2187L35.0323 32.0001L34.3551 31.9375L33.9775 31.7862L33.6595 31.5035L33.4837 31.1122L33.525 30.6247L33.7436 30.2931L34.4285 29.6955L34.6669 29.3777L35.0094 28.8764L35.2234 28.6487L35.4374 28.502L35.7446 28.4653L36.1711 28.5295L36.6114 28.6487L36.9569 28.7939L37.3849 29.1576L37.4644 29.1927L37.5026 29.2967L37.6998 29.7001L37.7869 29.8147L38.2043 29.8881L38.3051 29.8743L38.4779 29.8239L38.5788 29.8132L38.7821 29.8835L39.1138 30.1662L39.3141 30.1861L39.6335 30.0791L39.8093 30.1066L39.8827 30.29L39.869 30.3909L39.8445 30.4642L39.8384 30.533L39.8812 30.6201L39.95 30.6629L40.138 30.721L40.2037 30.7684L40.3535 30.7057L40.5018 30.7118L40.8091 30.7699L40.9711 30.7256L41.1194 30.6583L41.2478 30.6446L41.3456 30.7714L41.2386 30.8234L41.1805 30.8417H41.0904L41.2478 30.9762L41.5321 30.8967L41.8012 30.7164L41.899 30.5819L41.8363 30.5086L41.7217 30.4734L41.6086 30.5147L41.5337 30.6232L41.3197 30.3771L41.0491 29.7246L40.8702 29.4128L40.8855 28.9757L40.8427 28.7939L40.5767 28.3782L40.5141 28.2085L40.5049 28.1184L40.5186 27.9304L40.5141 27.8402L40.4865 27.7623L40.3321 27.478L40.0723 27.2946L39.9469 26.963L39.7956 26.856L39.5006 26.7414L39.3584 26.5932L39.1153 26.0751L39.233 25.8535L39.1581 25.667L39.016 25.502L38.9273 25.34L38.9411 25.149L39.0099 24.9151L39.1841 24.5285L39.126 24.3268L39.2086 24.1434L39.4394 23.8668L39.5846 23.2417L39.8002 22.8474L39.9209 22.4608L39.9836 22.0863L39.953 21.9274C39.0068 21.9274 38.0606 21.9244 37.1143 21.9244H22.1182L22.8443 21.3222L22.7862 21.0456L22.5003 20.7002L22.3933 20.3992L22.401 20.2952L22.4988 20.1088L22.5233 19.9911L22.5462 19.9498L22.5875 19.8322L22.6043 19.713L22.5569 19.6579L22.4285 19.5785L22.2833 19.392L22.1885 19.1735L22.2022 19.0008L22.3414 18.9259L22.56 18.9076L22.9987 18.9259L23.1943 18.8831L23.309 18.7624L23.3701 18.5958L23.497 17.8974L23.5842 17.7981L23.6025 17.7018L23.6193 17.4878L23.6025 17.4252L23.4848 17.199L23.39 17.0752L23.3518 16.9927L23.309 16.522L23.5261 16.2041L24.1757 15.7364L24.1864 15.6631L24.2323 15.5454L24.24 15.2871L24.4157 14.3518L24.4295 14.1348L24.4677 13.9453L24.7536 13.4288L24.8713 13.0223L24.9783 12.8373L25.1205 12.6478L25.2794 12.5454L25.6708 12.4583L25.8481 12.3926L26.027 12.2536L26.455 11.7569L26.5146 11.6667L26.6048 11.442L26.6797 11.3473L26.7699 11.2877L27.0573 11.1975L27.389 10.9545L27.5984 10.5816L27.6015 10.1858L27.3187 9.86336L27.3156 9.78848L27.3187 9.67844L27.3538 9.56688L27.4394 9.4813L27.9408 9.49963L28.2588 8.94946L28.5492 8.25411L28.9711 7.83537V7.76201L29.0445 7.72686L29.0782 7.57098L29.0155 7.40134L28.8045 7.32187L28.4804 7.27297L28.3276 7.21337L28.2649 7.1339L28.1824 6.69834L27.9714 6.49509L27.6871 6.37435L27.3768 6.18791L27.2636 6.03202L27.2315 5.85322L27.2499 5.40391L27.2698 5.29999L27.311 5.1762L27.3385 5.04477L27.3202 4.91487L27.2514 4.82929L27.0267 4.68716L26.9334 4.60769L26.8264 4.45334L26.747 4.273L26.698 4.06516L26.6812 3.82675L26.7791 3.67087L27.0114 3.62502L27.2667 3.61432L27.4379 3.56695L27.5862 3.33771L27.5449 3.14362L27.3783 3.01219L26.9197 2.93425L26.805 2.84103L26.7775 2.67903L26.8494 2.24348L26.9992 1.7147L27.0894 1.60467L27.2071 1.54201L27.3462 1.38918L27.4776 1.1951L27.5678 1.00254L27.389 0.777882L27.2713 0.667848L27.1536 0.622L27.0083 0.603661L26.8524 0.5517L26.7271 0.469174L26.6782 0.363725L26.6934 0L26.565 0.00764128C25.232 0.00764128 23.8991 0.00916953 22.5661 0.012226C21.1566 0.0152826 19.7472 0.0137543 18.3378 0.0168108C17.0767 0.0183391 15.8155 0.0168108 14.5544 0.0198673C13.1098 0.0229238 11.6652 0.0244521 10.2191 0.0244521C8.97476 0.0244521 7.73196 0.0305651 6.48763 0.0305651C4.97579 0.0305651 3.46394 0.0336216 1.9521 0.0351499C1.31006 0.0366781 0.664967 0.0382064 0.0198726 0.0382064C0.0168153 1.34639 0.0107006 2.65305 0.0107006 3.95971C0.0107006 5.30916 0.0076433 6.66014 0.00458598 8.00959C0.00305732 9.0488 0.00305732 10.0865 0 11.1257L0.0076433 11.1486L0.0275159 11.1899L0.076433 11.248L0.201783 11.3412L0.262929 11.3748L0.379107 11.4619L0.42191 11.5139L0.611464 11.8654L0.643566 11.9066L0.681782 11.9403L0.723056 11.9678L1.02726 12.1221L1.10981 12.1894L1.29019 12.3789L1.41707 12.5439L1.49961 12.6891L1.54242 12.7915L1.58063 12.8985L1.64637 13.036L1.88484 13.389L1.9093 13.4869L1.97197 13.9056L2.00713 14.0324L2.03923 14.118L2.07286 14.1516L2.10038 14.1868L2.12178 14.2281L2.12942 14.2831L2.12636 14.3457L2.08356 14.5184L2.0698 14.6162L2.05299 14.9204L2.03923 15.0105L2.02547 15.0701L1.98726 15.1481L1.94904 15.2596L1.94293 15.3376L1.94904 15.4186L1.98114 15.524L2.0056 15.5867L2.06369 15.6845L2.15388 15.8113L2.40305 16.0864L2.48407 16.1521L2.52993 16.1827L2.58191 16.2102L2.80662 16.279L2.86165 16.3004L2.90445 16.3309L2.93503 16.3753L2.94114 16.4318L2.91362 16.4899L2.89222 16.5204L2.88152 16.5342L2.87694 16.5357L2.77757 16.5999L2.75159 16.6381L2.74547 16.6901L2.76534 16.7772L2.78369 16.823L2.8112 16.8735L2.84636 16.9025L2.89069 16.9239L2.99923 16.9545L3.0512 16.9774L3.08942 17.0095L3.11999 17.0752L3.14445 17.1654L3.16891 17.3365L3.19643 17.4313L3.227 17.5016L3.32025 17.6284L3.46241 17.7858L3.59082 17.8714L3.60764 17.902L3.60305 17.9387L3.48534 18.0884L3.45783 18.1327L3.41961 18.2275L3.40127 18.2902L3.39057 18.3635L3.40891 18.4781L3.43948 18.5438L3.48076 18.5928L3.71923 18.7945L3.82165 18.9045L3.85222 18.9488L3.87668 19.0008L3.89502 19.0619L3.91337 19.149L3.9363 19.2224L3.96687 19.2774L4.01579 19.3584L4.02955 19.415L4.06776 19.7023L4.08611 19.7603L4.11056 19.7985L4.13808 19.8261L4.1656 19.8475L4.18547 19.8551L4.21298 19.8612H4.24662L4.427 19.8138L4.59362 19.8551L4.64254 20.0324L4.61808 20.5122L4.59668 20.6192L4.50954 20.7644L4.4912 20.8836L4.74037 21.284L4.86878 21.3986L4.907 21.4781L4.87184 21.5851L4.79846 21.6355L4.54623 21.7135L4.46063 21.7272L4.32458 21.8403L4.40407 22.0833L4.55235 22.3156L4.61961 22.3951L4.69145 22.5357L4.6777 22.583L4.61961 22.6946L4.47744 22.8199L4.3949 22.9101L4.35974 23.0232L4.37044 23.1408L4.41782 23.3456L4.42853 23.4664L4.42547 23.5963L4.41171 23.691L4.35974 23.8698L4.02343 24.4903L3.94853 25.0023L3.85834 25.1566L3.54037 25.4118L3.46394 25.5784L3.32942 26.1102L3.31108 26.2218L3.13069 26.2738L2.98853 26.4083L2.90598 26.5978L2.90292 26.8087L2.93044 26.8637L3.00382 26.9126L3.02827 26.9615L3.03745 27.1693L3.02827 27.1815L3.14292 27.5025L3.15515 27.5881L3.13069 27.7883L3.05885 27.9335L2.83413 28.2131L2.70267 28.4531L2.6721 28.6578L2.70726 29.1301L2.77299 29.2936L2.9121 29.425L3.04662 29.5779L3.08942 29.8193L3.0619 29.9263L2.97477 30.1372L2.95948 30.2579L2.98089 30.3649L3.07108 30.5208L3.08942 30.5926L3.11082 30.7898L3.14445 30.9441L3.15057 31.1138L3.09095 31.3567L2.97324 31.5676L2.95796 31.667L3.02827 31.7954L2.48407 32.4143L2.29452 32.749V32.752L2.37095 32.7597L2.52076 32.8223L2.56509 32.9767L2.52076 33.6614L2.14012 34.4224L1.99184 34.4576L1.40484 34.4988L1.31923 34.6073L1.34369 34.8549L1.43388 35.2981L1.66624 35.6206L1.84662 35.7551L2.03617 35.7L2.18293 35.5824L2.47643 35.4433L2.60484 35.3333L2.9121 35.1621L3.34318 35.0872L4.12738 35.0811L5.06751 35.101L5.30598 35.0016L5.4726 35.0429L5.88381 34.9986L6.07795 35.0811L6.27209 34.9772L6.80712 34.8824L7.29323 34.8595L7.79922 34.9481L8.81272 35.2034L9.43489 35.4907L10.5646 35.8636L11.0384 36.2502L11.3778 36.4382L12.3485 36.8539L13.8955 37.2023L14.2196 37.1198L14.3144 37.1763L14.4076 37.1198L14.6216 37.2344L16.0295 37.4866L16.3062 37.4789L16.5737 37.4071L17.254 37.0449L17.5215 36.9807L18.0978 37.0357L18.3531 37.0296L18.4738 36.8997L18.2843 36.834L18.3393 36.7286L18.4524 36.672L18.7352 36.6094L18.6237 36.5054L18.4066 36.507L18.1819 36.5757L18.0397 36.6827H17.9694L17.9144 36.4993L17.653 35.9568L17.7661 35.9155L18.0397 35.7306L17.9572 35.6817L17.8777 35.6878L17.7921 35.7153L17.5704 35.7551L17.4359 35.8605L17.3671 35.885L17.2815 35.7948L17.1913 35.5839L17.121 35.3409L17.0874 35.1514L17.2845 35.2828L17.3335 35.2966L17.3854 35.2553L17.4634 35.1101L17.4955 35.0796L17.6514 35.1239L17.7202 35.2339L17.6988 35.3547L17.5842 35.4494L17.7156 35.4525L17.8288 35.3699L18.0397 35.1514L18.1635 35.078L18.963 34.7846L19.0532 34.7159L19.1113 34.5737L19.0945 34.4805L19.1113 34.4347L19.2764 34.4209L19.3803 34.4652L19.4766 34.5416L19.5837 34.5691L19.8328 34.3796L19.9505 34.3735L20.3831 34.4377L20.4901 34.5034L20.5589 34.6104L20.5803 34.7525L20.5498 34.9374L20.4794 34.9038L20.3969 34.7831L20.3251 34.7143L20.2242 34.8045L20.134 35.0047L20.1003 35.2049L20.1661 35.2951L20.1966 35.3715L20.2058 35.5228L20.2822 35.6328L20.5177 35.5854L20.8631 35.3852L21.0236 35.3195L21.8919 35.2706L22.1059 35.2951L22.3276 35.3868L22.3964 35.5274L22.3658 35.9904L22.3215 36.2365L22.2695 36.4183L22.3108 36.5192L22.5538 36.536L22.6608 36.5085L22.8657 36.4183L22.965 36.3954L23.0415 36.4458L23.0583 36.5605L23.0614 36.6949L23.0889 36.7927L23.1882 36.9807L23.2234 37.2252L23.1852 37.4392L23.0568 37.5492L23.2861 37.5981L23.6698 37.537L24.0473 37.4117L24.2629 37.2573L24.3928 37.3536L24.3791 37.4499L24.3087 37.5508L24.2644 37.6608L24.3133 37.7326L24.4234 37.7571L24.6496 37.7678L24.8728 37.8274L25.2672 37.994L25.4751 38.1284L25.5133 38.0154L25.6264 37.8106L25.6647 37.7005L25.6433 37.6684L25.6066 37.5798L25.5913 37.4682L25.6326 37.3674L25.8985 37.1473L25.9475 36.9975L25.8573 36.7515L26.0086 36.7591L26.1294 36.8111L26.2058 36.9074L26.2364 37.0495L26.2058 37.2191L26.1202 37.32L26.0163 37.3949L25.9199 37.482L25.8053 37.7204L25.764 38.0016L25.8099 38.2843L25.949 38.5334L26.0101 38.5732L26.1309 38.6098L26.1768 38.648L26.1951 38.7153L26.1813 38.891L26.2058 38.9675L26.3098 39.0607L26.6033 39.2334L27.1184 39.6689L27.2254 39.8997L27.0634 40.1702V40.2359L27.1077 40.2634L27.152 40.3307L27.1948 40.3811L27.1108 40.4667L27.0175 40.5263L26.8173 40.5981L26.8203 40.4804L26.7821 40.3948L26.7148 40.3398L26.6155 40.3093L26.7041 40.1702L26.7424 40.0143L26.747 39.6582L26.4703 39.7408L26.2517 39.6139L26.1401 39.403L26.1783 39.2242L25.9597 39.2456L25.8512 39.3633L25.7732 39.5329L25.6662 39.7224L25.5271 39.8263L25.3513 39.8676L25.1892 39.8218L25.096 39.6567L25.203 40.1289L25.602 40.4881L26.1263 40.7234L27.0985 40.8869L27.2055 40.9313L27.4211 41.1254L27.5082 41.1743L27.6596 41.185L27.7819 41.1636L27.8644 41.081L27.895 40.9221L27.9576 40.8732L28.1029 40.8839L28.2542 40.9389L28.3383 41.0367L28.2404 41.0581L28.1747 41.1131L28.1426 41.2002L28.1472 41.3179L28.4101 41.2186L28.6624 41.2797L28.8978 41.4341L29.3227 41.8314L29.419 41.8146L29.4496 41.7733L29.4557 41.7229L29.4863 41.6847L29.6942 41.5808L29.7355 41.4845L29.6743 41.3179L29.8379 41.3806L29.9908 41.4845L30.1482 41.5456L30.3148 41.4692L30.3821 41.6664L30.2812 41.7336L30.1299 41.7779L30.0534 41.9002L30.1666 41.9093L30.4922 42.0194L30.561 42.0133L30.6297 41.8604L30.7796 41.865L30.9217 41.9369L30.9767 41.9796L31.0501 41.9552L31.0883 41.9032L31.1189 41.8513L31.2504 41.7901L31.2596 41.7015L31.2458 41.6068L31.2657 41.538L31.3696 41.5013L31.4736 41.5258L31.524 41.6159L31.5821 41.7535V41.5792L31.6478 41.1697L31.6264 41.1513L31.5821 41.104L31.6616 40.861L31.7105 40.7479L31.7732 40.6715L31.8603 40.7784L31.9306 40.8915L32.0009 40.9328L32.0911 40.8182L31.9734 40.6592L32.0315 40.5492L32.1339 40.4269L32.1508 40.2329L31.9367 40.2008L31.8924 40.1687L31.8894 40.051L31.9337 39.9929L32.004 39.9853L32.0911 40.0189L32.1095 39.9196L32.163 39.8645L32.2425 39.8538L32.3464 39.8737V39.9532L32.2211 40.0189L32.3113 40.0647L32.6323 40.1687L32.7424 40.1167L32.831 40.0265L32.9212 40.0082L33.0435 40.1702L33.2606 39.9241L33.3355 39.7881L33.363 39.6231L33.4073 39.4641L33.4975 39.4702L33.577 39.5421L33.5846 39.5879L33.6366 39.646L33.8201 39.9532L33.8751 40.0953V40.6791L34.0983 40.3841L34.1304 40.2772L34.1441 40.135L34.19 40.0418L34.2664 39.9868L34.3811 39.9562V40.022L34.3948 40.1442L34.7373 40.5247L34.8244 40.7112L34.8595 40.7632L34.936 40.6348L35.0017 40.4621L35.0124 40.3826L35.1057 40.3994L35.1668 40.5003L35.1974 40.6317L35.205 40.7448L35.1913 40.8701L35.1515 41.0214L35.1423 41.1437L35.1102 41.2568L35.0491 41.3683L35.0109 41.4768L35.046 41.5762L35.2432 41.7626L35.3029 41.8528L35.3304 41.9842L35.3365 42.1187L35.3212 42.2242L35.2631 42.2822L35.3992 42.3311L35.685 42.2104L36.162 41.9063L36.3148 41.8543L36.4707 41.726L36.5961 41.5777L36.7306 41.4738L36.7826 41.402L36.9936 40.9939L37.0532 40.8243L36.749 40.8655L36.5992 40.5645L36.645 40.2466L36.9248 40.239L36.8239 40.0602L36.9003 39.97L37.0547 39.9975L37.18 40.1732L37.3635 40.0968V40.0235L37.2122 39.944L37.0853 39.8126L37.0027 39.6429L36.9813 39.4458L37.0578 39.4702L37.1128 39.5176L37.151 39.5833L37.1785 39.6628L37.1892 39.3816L37.1785 39.296L37.1479 39.2273L37.1067 39.1722L37.0516 39.1172L37.0532 38.9415L37.0837 38.8406L37.1617 38.778L37.3039 38.7168L37.0929 38.5197L36.8774 38.3821L36.6435 38.3057L36.3775 38.2813L36.2873 38.2599L36.1941 38.2049L35.7966 37.835L35.7095 37.7693L35.6544 37.8274L35.6132 37.8381L35.575 37.7968L35.526 37.7051H35.6132L35.6896 37.6883L35.8348 37.6256V37.5523L35.7722 37.5599L35.5841 37.5523L35.6422 37.4071L35.7813 37.2268L35.8364 37.1198L35.9755 37.2421L36.191 37.566L36.3423 37.7051L36.4111 37.6256L36.2904 37.5462L36.3209 37.485L36.4463 37.4606L36.6022 37.485L36.7765 37.566L37.79 38.2415L38.0636 38.3378L38.3785 38.2033L38.6659 38.5013L38.8188 38.5564L38.8845 38.3179L38.8983 38.1728L38.9395 38.1453L39.0083 38.1789L39.2285 38.2308L39.2499 38.2966L39.2086 38.428L39.1902 38.4219L39.149 38.4601L39.1046 38.5166L39.0832 38.5732V38.6404L39.1016 38.6756L39.123 38.6939L39.1398 38.7153L39.1581 38.7657L39.1933 38.836L39.2422 38.9017L39.3003 38.9323L39.4975 38.8223L39.6045 38.7978L39.6504 38.8972L39.6228 38.9675L39.5739 39.0301L39.5464 39.1035L39.5877 39.2273L39.6152 39.1753L39.6397 39.1539L39.6702 39.131L39.7192 39.0821L39.7742 39.2303L39.8048 39.3526L39.7941 39.4672L39.7207 39.5879L39.6167 39.6766L39.4593 39.7606L39.1398 39.8752L40.43 39.9899L40.54 39.9532L40.7923 39.7239L40.9268 39.6582L41.0277 39.7514L41.0216 39.8508L40.8687 40.0938L41.0246 40.2313L41.0766 40.3979L41.1591 40.54L41.4022 40.5981L41.6514 40.6195L42.1956 40.8228L42.1054 40.6012L42.2063 40.5049L42.3974 40.5079L42.5762 40.5981L42.4035 40.6745L42.324 40.6776L42.8361 41.6098L43.0318 41.6832L43.1021 41.7489L43.0501 41.8681L43.044 41.9476L43.1449 42.2318L43.2381 42.3174L43.4491 42.2777L43.6677 42.1508L43.7823 41.9842L43.7869 41.8559L43.7349 41.6343L43.7197 41.5074L43.7502 41.3928L43.8129 41.3256L43.8756 41.3317L43.9061 41.4386L43.8954 41.6984L43.9153 41.8329L43.9765 41.9063L44.056 41.8757L44.0804 41.755L44.0865 41.6205L44.1033 41.5441L44.2394 41.5548L44.2211 41.7626L44.1354 42.0056L44.0697 42.1202L43.9077 42.4824L43.8221 42.5237L43.6142 42.5665L43.5316 42.6322L43.5286 42.6933L43.5439 42.8003V42.9211L43.498 43.028L43.2977 43.271L43.2366 43.3749L43.07 43.5094L43.018 43.569L42.9935 43.6653L42.9599 44L43.1632 43.9435L43.3283 43.8013L43.764 43.1579L43.8221 43.0173L43.8435 42.8828L43.926 42.7163L44.1202 42.6505L44.3342 42.6215L44.4825 42.5604L44.5283 42.4779L44.5222 42.4091L44.4977 42.3357L44.4825 42.2333L44.5008 42.1264H44.5467L44.643 42.1921L44.7133 42.2807L44.9441 42.6857L44.993 42.8095L45.0542 42.9241L45.3339 43.2741L45.4318 43.3459L45.5586 43.2848L45.3752 42.9287L45.4027 42.7377L45.6519 42.4855L45.7696 42.3357L45.82 42.1936L45.8613 42.2761L45.9072 42.3311L46.0157 42.4183L46.0188 42.2945L45.9912 42.1798L45.9408 42.0759L45.8827 41.9858L46.034 41.9919L46.138 42.0606L46.193 42.1814L46.1991 42.3403L46.323 42.2196L46.5859 41.6908L45.9729 41.6755L45.8858 41.6908L45.9056 41.5609L46.031 41.4142L46.1976 41.2935L46.3291 41.2583L46.3214 41.321L46.3291 41.4035V41.4753H46.3979L46.4407 41.3668L46.5064 41.3454L46.7067 41.4035L46.6409 41.2996L46.6027 41.2751L46.5171 41.2583V41.1788H46.7036V41.1804ZM43.7181 32.1239L43.9077 32.0857L43.9153 32.0643L43.952 32.0139L44.004 31.9619L44.0697 31.9405L44.1003 31.9528L44.1278 31.9833L44.166 32.0108L44.2363 32.02L44.2425 31.9986L44.273 31.9466L44.3219 31.8916L44.3846 31.8702L44.4534 31.8977L44.4916 31.9635L44.5191 32.0383L44.5467 32.0872L44.6796 32.2615L44.7423 32.2875L44.8019 32.1667L44.9334 32.2049L45.0221 32.1224L45.0633 31.9726L45.0542 31.7969H44.9961L44.9655 31.8687L44.9242 31.9237L44.8692 31.9757L44.8004 32.0215L44.7928 31.9726L44.7439 31.8718L44.7714 31.7235L44.6093 31.6486L44.4809 31.5585L44.6154 31.3583L44.8769 31.0847L44.9976 30.9915L45.1214 30.9227V30.8494L44.9793 30.8876L44.8524 30.9976L44.672 31.2131L44.4381 31.3888L44.3067 31.4561L44.1645 31.5065L44.2318 31.693L44.1553 31.751H44.0346L43.9749 31.7617L43.9306 31.8366L43.8297 31.8916L43.7028 31.9283L43.5928 31.9451L43.6509 32.0872L43.7181 32.1239ZM42.8544 31.1244L42.8407 31.0633L42.7795 31.0908L42.7199 31.1902L42.7963 31.2238L42.8544 31.1244ZM37.8634 40.3872L37.738 40.5339L37.5057 40.6195L37.2947 40.7311L37.2366 40.9649H37.2993L37.4216 40.8273L37.7426 40.6608L37.9321 40.5309L37.8634 40.4575L37.9321 40.3872H37.8634ZM44.6246 33.1952L44.3754 33.2503L44.2088 33.316L44.059 33.4505L44.0712 33.4994L44.1568 33.4642L44.2562 33.4321L44.4305 33.4016H44.5665L44.6139 33.3771L44.5833 33.3267V33.2716L44.6246 33.1952ZM44.7423 38.2828L44.9151 38.2889L45.1046 38.2446L45.259 38.1498L45.314 37.9878L45.3033 37.9557L45.3003 37.9282L45.2881 37.9145L45.2437 37.9237L45.1979 38.0765L45.0603 38.1697L44.7423 38.2828ZM21.4287 37.0587L21.201 37.0388L20.9212 36.9792L20.9105 36.9563L20.6308 36.834L20.3923 36.6002L20.2471 36.5054L19.7289 36.3878L19.6158 36.3985L19.5775 36.4336L19.4843 36.565L19.4323 36.6094L19.2015 36.6827L19.0211 36.6995L18.8453 36.7545L18.6298 36.941L18.6175 37.0892L18.7689 37.2314L19.7136 37.6425L19.8084 37.7372L19.9047 37.7785L20.4366 38.1315L20.7959 38.0673L20.9273 38.0612L20.9931 38.0306L21.0114 37.9542L21.0145 37.809L21.0634 37.6302L21.1903 37.5233L21.5281 37.3337L21.6137 37.1763L21.5556 37.0908L21.4287 37.0587ZM46.9895 36.5528L47.0002 36.5666L47.0873 36.4932L47.1286 36.4474L47.0766 36.4795L46.9895 36.5528ZM28.7434 42.6047L28.7617 42.6078L28.6471 42.5634L28.7434 42.6047ZM28.7617 42.6078L29.0277 42.7086H29.3564L29.1408 42.646L28.7617 42.6078ZM48.4891 32.8208L48.3545 32.6237L48.2827 32.3715L48.1849 32.1453L47.9816 32.0185L48.1191 32.1316L48.2093 32.2936L48.2995 32.6741L48.3622 32.7536L48.3179 32.8743L48.3561 33.0455L48.4875 33.3358L48.4295 33.4016L48.4356 33.5712L48.4295 34.1275L48.3744 34.3109L48.1008 34.861L48.139 34.9222L48.1558 34.9848L48.1589 35.046L48.1482 35.104L48.379 34.6654L48.4585 34.427L48.5517 33.5483L48.4891 32.8208ZM47.4893 36.0179L47.8241 35.5686L47.9663 35.3333L47.3655 36.1218L47.4893 36.0179ZM36.9431 38.2507L36.9844 38.3195L37.0195 38.35L37.0547 38.3714H37.1067L37.1541 38.3393L37.2274 38.3531L37.2886 38.4219L37.3207 38.512L37.3727 38.5579L37.5087 38.5395L37.5576 38.5472L37.5943 38.509L37.5974 38.4326L37.5806 38.4051L37.5653 38.4234L37.5683 38.3928L37.5592 38.3348L37.5439 38.3256L37.5362 38.373L37.5026 38.3882L37.4369 38.4096L37.3513 38.3684L37.258 38.2568L37.255 38.2217L37.3513 38.2324L37.3849 38.185L37.3299 38.1009L37.2397 38.0581L37.1372 38.0306L37.0639 37.997L37.0226 37.9557L36.9523 37.9114L36.7612 37.8411L36.6313 37.8549L36.5487 37.8411L36.4662 37.8457L36.4065 37.9007L36.4142 38.0001L36.5762 38.1911L36.6664 38.24L36.7902 38.2079L36.9248 38.185L36.9737 38.1942L36.9523 38.2033L36.9431 38.2507ZM34.7128 42.3525L34.6364 42.38L34.5645 42.4213L34.3046 42.6383L34.8855 42.4213V42.3418H34.7953L34.7128 42.3525ZM31.469 42.542L31.4231 42.5451L31.2687 42.5344L31.2382 42.565L31.1694 42.6093L31.0517 42.6276L30.9722 42.6001L30.9446 42.5619H30.8927L30.6985 42.6444L30.6511 42.6933L30.3989 42.7545L30.4188 42.8202H30.564L31.2733 42.6475L31.4277 42.5848L31.5424 42.5084L31.5576 42.484L31.498 42.5191L31.469 42.542ZM33.6473 42.6643L33.5434 42.6032L33.3217 42.5161L32.776 42.4014L32.7653 42.4595L33.2086 42.6414L33.6198 42.7361H33.6825L33.6764 42.6979L33.6473 42.6643ZM33.3737 40.6929L33.4348 40.6317L33.4944 40.5553L33.4853 40.456L33.3783 40.4988L33.3095 40.7341L33.3171 40.8824L33.3416 40.7647L33.3737 40.6929Z" fill="#C7C7CC"/>
</svg>
