<svg width="16" height="16" viewBox="0 0 16 16" fill="none" xmlns="http://www.w3.org/2000/svg">
<path d="M15.1111 10.6667C14.8753 10.6667 14.6493 10.7603 14.4825 10.9269C14.3158 11.0937 14.2222 11.3198 14.2222 11.5556V14.2222H1.77777V11.5556C1.77777 11.238 1.60838 10.9446 1.33333 10.7857C1.05828 10.627 0.71949 10.627 0.444443 10.7857C0.169393 10.9446 0 11.238 0 11.5556V15.1111C0 15.3468 0.0936251 15.5729 0.260291 15.7397C0.427081 15.9064 0.653148 16 0.888893 16H15.1111C15.3468 16 15.5729 15.9064 15.7397 15.7397C15.9064 15.5729 16 15.3468 16 15.1111V11.5556C16 11.3198 15.9064 11.0937 15.7397 10.9269C15.5729 10.7603 15.3468 10.6667 15.1111 10.6667Z" fill="#231F20"/>
<path d="M7.37166 12.1841C7.53833 12.3508 7.76439 12.4443 8.00014 12.4443C8.23588 12.4443 8.46195 12.3508 8.62861 12.1841L13.073 7.73969C13.2911 7.51387 13.3739 7.18985 13.2909 6.88715C13.208 6.58445 12.9714 6.34785 12.6686 6.26486C12.3659 6.1819 12.0419 6.26474 11.8161 6.48275L8.88903 9.40982V0.888887C8.88903 0.5713 8.71964 0.277904 8.44459 0.119047C8.16954 -0.0396824 7.83075 -0.0396824 7.5557 0.119047C7.28065 0.277901 7.11126 0.5713 7.11126 0.888887V9.40982L4.18419 6.48275C3.95837 6.26474 3.63435 6.1819 3.33165 6.26486C3.02895 6.34783 2.79235 6.58442 2.70937 6.88715C2.6264 7.18985 2.70924 7.51388 2.92725 7.73969L7.37166 12.1841Z" fill="#231F20"/>
</svg>
