<svg width="58" height="48" viewBox="0 0 58 48" fill="none" xmlns="http://www.w3.org/2000/svg">
<rect x="57.0587" y="9.21901" width="38.3153" height="49.7294" transform="rotate(100.005 57.0587 9.21901)" fill="#F5F4F4" stroke="#DBDBDB"/>
<rect x="57.0587" y="9.21901" width="38.3153" height="49.7294" transform="rotate(100.005 57.0587 9.21901)" fill="#F5F4F4" stroke="#DBDBDB"/>
<rect x="0.5" y="10.4043" width="49.4664" height="36.5564" fill="white" stroke="#DBDBDB"/>
<rect x="5.8653" y="34" width="12.91" height="2.34728" fill="#C4C4C4"/>
<rect x="6" y="39" width="12.91" height="2.34728" fill="#C4C4C4"/>
<rect x="6" y="15" width="37" height="3" fill="#C4C4C4"/>
<rect x="21" y="21" width="10.5627" height="2.34728" fill="#C4C4C4"/>
<rect x="21" y="25.6943" width="10.5627" height="2.34728" fill="#C4C4C4"/>
<rect x="21" y="30" width="10.5627" height="2.34728" fill="#C4C4C4"/>
<rect x="21" y="34" width="10.5627" height="2.34728" fill="#C4C4C4"/>
<rect x="21" y="39" width="10.5627" height="2.34728" fill="#C4C4C4"/>
<rect x="32.7373" y="21" width="10.5627" height="2.34728" fill="#C4C4C4"/>
<rect x="32.7373" y="25.6943" width="10.5627" height="2.34728" fill="#C4C4C4"/>
<rect x="32.7373" y="30" width="10.5627" height="2.34728" fill="#C4C4C4"/>
<rect x="32.7373" y="34" width="10.5627" height="2.34728" fill="#C4C4C4"/>
<rect x="32.7373" y="39" width="10.5627" height="2.34728" fill="#C4C4C4"/>
<rect x="6" y="21" width="13" height="11" fill="#C4C4C4"/>
</svg>
