<svg width="17" height="16" viewBox="0 0 17 16" fill="none" xmlns="http://www.w3.org/2000/svg">
<path fill-rule="evenodd" clip-rule="evenodd" d="M4.71003 0H14.3911C15.6994 0 16.7983 1.09894 16.7983 2.4072V13.2919C16.7983 14.6002 15.6994 15.6991 14.3911 15.6991H4.71003C3.40177 15.6991 2.30284 14.6002 2.30284 13.2919V12.6116H4.23906C5.44266 12.6116 5.44266 10.7277 4.23906 10.7277H2.30284V8.7915H4.23906C5.44266 8.7915 5.44266 6.9076 4.23906 6.9076H2.30284V4.97138H4.23906C5.44266 4.97138 5.44266 3.08749 4.23906 3.08749H2.30284V2.4072C2.30284 1.09894 3.40177 0 4.71003 0ZM1.30856 12.193C0.628266 12.193 0.628266 11.1464 1.30856 11.1464H4.23906C4.91935 11.1464 4.91935 12.193 4.23906 12.193H1.30856ZM1.30856 8.37285C0.628266 8.37285 0.628266 7.32625 1.30856 7.32625C2.25051 7.32625 3.24478 7.32625 4.23906 7.32625C4.91935 7.32625 4.91935 8.37285 4.23906 8.37285C3.24478 8.37285 2.25051 8.37285 1.30856 8.37285ZM1.30856 4.55274C0.628266 4.55274 0.628266 3.50613 1.30856 3.50613H4.23906C4.91935 3.50613 4.91935 4.55274 4.23906 4.55274H1.30856ZM8.42549 12.9256C8.2685 12.7686 8.05917 12.6639 7.84985 12.507C7.5882 12.2976 7.32655 12.1406 7.0649 11.9313C6.59392 11.6173 8.1115 9.41946 8.58248 9.73344C8.73947 9.8381 8.94879 9.99509 9.10578 10.0998C9.73374 10.5184 13.0829 5.75634 12.5073 5.33769C12.2979 5.1807 12.1409 5.07604 11.9316 4.97138C11.513 4.6574 13.0306 2.4072 13.5015 2.72118C13.7632 2.9305 14.0248 3.13982 14.2865 3.34914C14.4958 3.4538 14.7051 3.61079 14.8621 3.71545C16.1704 4.60507 9.73374 13.8152 8.42549 12.9256Z" fill="#BDBDBD"/>
</svg>
