<svg width="14" height="21" viewBox="0 0 14 21" fill="none" xmlns="http://www.w3.org/2000/svg">
<path d="M7 0C3.12726 0 0 3.39072 0 7.58973C0 9.05378 0.431346 10.4518 1.03148 11.6006L5.59344 20.1612C5.87944 20.7204 6.45613 21 7 21C7.54392 21 8.09243 20.7204 8.40656 20.1612L12.9685 11.6057C13.5733 10.4567 14 9.08418 14 7.59471C14 3.3958 10.8727 0 7 0ZM7 9.83157C5.59344 9.83157 4.44474 8.5861 4.44474 7.06104C4.44474 5.53597 5.59344 4.29051 7 4.29051C8.40656 4.29051 9.55526 5.53597 9.55526 7.06104C9.55526 8.59118 8.40656 9.83157 7 9.83157Z" fill="#A90000"/>
</svg>
