<svg width="26" height="26" viewBox="0 0 26 26" fill="none" xmlns="http://www.w3.org/2000/svg">
<path d="M0 13C0 5.81953 5.81953 0 13 0C20.1805 0 26 5.81953 26 13C26 20.1805 20.1805 26 13 26C5.81953 26 0 20.1805 0 13ZM8.88672 10.5676L11.2785 12.9543L8.88672 15.3867C8.41445 15.8641 8.41445 16.6359 8.88672 17.0676C9.36406 17.5855 10.1359 17.5855 10.5676 17.0676L12.9543 14.7215L15.3867 17.0676C15.8641 17.5855 16.6359 17.5855 17.0676 17.0676C17.5855 16.6359 17.5855 15.8641 17.0676 15.3867L14.7215 12.9543L17.0676 10.5676C17.5855 10.1359 17.5855 9.36406 17.0676 8.88672C16.6359 8.41445 15.8641 8.41445 15.3867 8.88672L12.9543 11.2785L10.5676 8.88672C10.1359 8.41445 9.36406 8.41445 8.88672 8.88672C8.41445 9.36406 8.41445 10.1359 8.88672 10.5676Z" fill="#DBDBDB"/>
</svg>
