<svg width="40" height="40" viewBox="0 0 40 40" fill="none" xmlns="http://www.w3.org/2000/svg">
<rect x="0.5" y="0.5" width="39" height="39" rx="19.5" fill="white" stroke="#DBDBDB"/>
<path d="M31.9305 18.7615C31.8799 18.1548 31.3238 17.7251 30.7425 17.8009C30.1358 17.8515 29.7061 18.4076 29.7819 18.9889C30.0852 21.9463 29.049 24.8531 26.951 26.951C23.1089 30.7931 16.891 30.7931 13.049 26.951C9.20694 23.1089 9.20689 16.891 13.049 13.049C16.891 9.20694 23.109 9.2069 26.951 13.049H24.6256C24.0189 13.049 23.5388 13.5293 23.5388 14.1358C23.5388 14.439 23.6652 14.7171 23.8674 14.9193C24.0697 15.1215 24.3477 15.2479 24.651 15.2479H29.6051C30.2118 15.2479 30.6919 14.7676 30.6919 14.1611L30.6918 9.18167C30.6918 8.57499 30.2115 8.09488 29.605 8.09488C28.9983 8.09488 28.5182 8.57517 28.5182 9.18167V11.5071C23.7915 6.83096 16.1833 6.83096 11.5071 11.5071C6.83096 16.1833 6.83096 23.8167 11.5071 28.4929C16.1833 33.169 23.8167 33.169 28.4929 28.4929C31.0711 25.9146 32.3096 22.376 31.9305 18.7615L31.9305 18.7615Z" fill="#005EF4"/>
<path d="M18.3568 15.6019C17.7502 15.2228 16.9414 15.6777 16.9414 16.3854V23.6145C16.9414 24.3474 17.7249 24.7773 18.3568 24.398L24.2463 20.7835C24.8276 20.4297 24.8276 19.5703 24.2463 19.2164L18.3568 15.6019Z" fill="#005EF4"/>
</svg>
